<svg xmlns="http://www.w3.org/2000/svg" width="21" height="21" viewBox="0 0 21 21">    <path fill="#333" fill-rule="nonzero" stroke="#FFF" stroke-width=".1" d="M18.523 15.62H6.522c-.33 0-.645-.3-.687-.651L4.577 6.093l-.712-4.118C3.735.909 2.798.074 1.73.074H.792a.719.719 0 0 0-.001 1.437h.94c.343 0 .67.31.715.672l.714 4.133 1.253 8.84c.13 1.066 1.055 1.9 2.11 1.9h12a.718.718 0 1 0 0-1.436zM20.2 2.951l-.002-.001a1.904 1.904 0 0 0-1.444-.655H5.964a.719.719 0 0 0-.002 1.436h12.793c.143-.002.28.061.371.17.15.17.225.447.193.71l-1.163 6.668c-.043.352-.376.64-.737.641l-10.026.742a.705.705 0 0 0-.489.246.72.72 0 0 0 .595 1.185l9.972-.738a2.148 2.148 0 0 0 2.103-1.865l1.164-6.668c.085-.708-.111-1.39-.538-1.872v.001zM6.713 20.758a1.46 1.46 0 0 0 0-2.918 1.459 1.459 0 0 0 0 2.918zm10.345 0a1.46 1.46 0 0 0 .001-2.918 1.46 1.46 0 0 0-.001 2.918z"/></svg>