<?xml version="1.0"?>
<!--Icons from directory ""-->
<svg xmlns="http://www.w3.org/2000/svg" width="50" height="121" viewBox="0 0 50 121"><svg width="49" height="39" id="group" y="0"><g fill="none" fill-rule="evenodd" stroke-linecap="round" stroke-linejoin="round" stroke-width="2"><path fill="#F27A1A" stroke="#F27A1A" d="M44.208 30.667h-22.5l-7.166 7.166v-7.166H4a3 3 0 0 1-3-3V4a3 3 0 0 1 3-3h40.208a3 3 0 0 1 3 3v23.667a3 3 0 0 1-3 3z"/><path d="M13 11c0-2.208 1.792-4 4-4s4 1.792 4 4m14 0c0-2.208-1.792-4-4-4s-4 1.792-4 4m-16 5c0 4.95 4.048 9 9 9h8c4.95 0 9-4.05 9-9" stroke="#FFF"/></g></svg><svg width="50" height="33" id="page-12" y="39"><g fill="none" fill-rule="evenodd" stroke-linecap="round" stroke-linejoin="round" stroke-width="2"><path fill="#F27A1A" stroke="#F27A1A" d="M48.75 27.5c0 2.07-1.68 3.75-3.75 3.75H5c-2.07 0-3.75-1.68-3.75-3.75V5c0-2.07 1.68-3.75 3.75-3.75h40c2.07 0 3.75 1.68 3.75 3.75v22.5z"/><path stroke="#FFF" d="M47.5 2.5L25 20 2.5 2.5"/></g></svg><svg width="50" height="49" id="page-13" y="72"><g fill="none" fill-rule="evenodd" stroke="#F27A1A" stroke-linecap="round" stroke-linejoin="round" stroke-width="2"><path fill="#F27A1A" d="M15.573 20.583a3.99 3.99 0 0 0 0-5.742l-4.423-4.306c-1.626-1.583-4.27-1.583-5.895 0l-2.426 2.363a5.96 5.96 0 0 0-.788 7.66c7.045 10.375 16.442 19.525 27.097 26.388 2.477 1.593 5.768 1.277 7.865-.77l2.428-2.362a3.984 3.984 0 0 0 0-5.74l-4.423-4.305c-1.628-1.586-4.267-1.586-5.895 0l-1.473 1.435A97.587 97.587 0 0 1 14.1 22.018l1.473-1.435z"/><path d="M25 1c13.256 0 24 10.744 24 24M25 9.348c8.644 0 15.652 7.006 15.652 15.652M25 16.652c4.61 0 8.348 3.268 8.348 7.305"/></g></svg></svg>
