<?xml version="1.0" encoding="UTF-8"?>
<svg width="50px" height="45px" viewBox="0 0 50 45" version="1.1" xmlns="http://www.w3.org/2000/svg" xmlns:xlink="http://www.w3.org/1999/xlink">
    <!-- Generator: Sketch 52.6 (67491) - http://www.bohemiancoding.com/sketch -->
    <title>Group 2</title>
    <desc>Created with Sketch.</desc>
    <g id="Page-1" stroke="none" stroke-width="1" fill="none" fill-rule="evenodd">
        <g id="Group-2" transform="translate(1.000000, 0.000000)">
            <g id="group-9" transform="translate(0.000000, 3.000000)" fill="#999999" fill-rule="nonzero" opacity="0.502046131" stroke="#999999" stroke-width="0.22">
                <path d="M37.03,31.1266667 C37.8779412,31.1266667 38.5653333,31.8140588 38.5653333,32.662 C38.5653333,33.5099412 37.8779412,34.1973333 37.03,34.1973333 L13.0421667,34.1973333 C10.8838333,34.1973333 8.99033333,32.4905 8.72666667,30.31 L6.22183333,12.642 L4.795,4.382 C4.711,3.70066667 4.09733333,3.122 3.465,3.122 L1.58433333,3.122 C0.752551829,3.09907338 0.090168225,2.41818074 0.090168225,1.58608333 C0.090168225,0.753985923 0.752551829,0.0730932881 1.58433333,0.0501666667 L3.465,0.0501666667 C5.649,0.0501666667 7.5635,1.75816667 7.82833333,3.9375 L9.25166667,12.1648333 L11.767,29.9098333 C11.8451667,30.569 12.4343333,31.1266667 13.041,31.1266667 L37.03,31.1266667 Z M40.4576667,5.83333333 C41.3315,6.81916667 41.7316667,8.211 41.5578333,9.653 L39.2303333,22.988 C38.9701667,25.1265 37.079,26.7983333 34.9276667,26.7983333 L15.0021667,28.2741667 C14.3847501,28.3151719 13.8028282,27.982375 13.525085,27.4294344 C13.2473418,26.8764937 13.327809,26.2109775 13.7293333,25.7401667 C13.9965,25.4286667 14.3675,25.242 14.7758333,25.2128333 L34.8156667,23.7311667 C35.4958333,23.7276667 36.1188333,23.1898333 36.1981667,22.5365 L38.5233333,9.20266667 C38.5828333,8.708 38.4393333,8.18183333 38.1616667,7.86683333 C37.9970536,7.66971786 37.7522836,7.55740658 37.4955,7.56116667 L11.9221667,7.56116667 C11.0903852,7.53824005 10.4280016,6.85734741 10.4280016,6.02525 C10.4280016,5.19315259 11.0903852,4.51225995 11.9221667,4.48933333 L37.4955,4.48933333 C38.64,4.48933333 39.6935,4.96766667 40.4565,5.83216667 L40.4576667,5.83333333 Z M13.4236667,41.5963333 C11.7580679,41.5963333 10.4078333,40.2460988 10.4078333,38.5805 C10.4078333,36.9149012 11.7580679,35.5646667 13.4236667,35.5646667 C15.0566045,35.6100918 16.3567721,36.9469304 16.3567721,38.5805 C16.3567721,40.2140696 15.0566045,41.5509082 13.4236667,41.5963333 Z M34.1016667,41.5963333 C32.4687288,41.5509082 31.1685613,40.2140696 31.1685613,38.5805 C31.1685613,36.9469304 32.4687288,35.6100918 34.1016667,35.5646667 C35.7346045,35.6100918 37.0347721,36.9469304 37.0347721,38.5805 C37.0347721,40.2140696 35.7346045,41.5509082 34.1016667,41.5963333 Z" id="Shape"></path>
            </g>
            <g id="Group" transform="translate(31.000000, 0.000000)">
                <rect id="Rectangle" stroke="#FFFFFF" fill="#F27A1A" fill-rule="nonzero" x="0.5" y="0.5" width="17" height="17" rx="8.5"></rect>
                <path d="M9,13 C8.20634524,13 7.57936738,12.6607177 7.11904762,11.9821429 C6.65872786,11.303568 6.42857143,10.321435 6.42857143,9.03571429 C6.42857143,7.74999357 6.65872786,6.77976518 7.11904762,6.125 C7.57936738,5.47023482 8.20634524,5.14285714 9,5.14285714 C9.79365476,5.14285714 10.4206326,5.47221893 10.8809524,6.13095238 C11.3412721,6.78968583 11.5714286,7.75793012 11.5714286,9.03571429 C11.5714286,10.321435 11.3412721,11.303568 10.8809524,11.9821429 C10.4206326,12.6607177 9.79365476,13 9,13 Z M9,11.9285714 C9.1825406,11.9285714 9.3511897,11.8789687 9.50595238,11.7797619 C9.66071506,11.6805551 9.79365024,11.5158742 9.9047619,11.2857143 C10.0158736,11.0555544 10.1031743,10.7579383 10.1666667,10.3928571 C10.230159,10.027776 10.2619048,9.57539952 10.2619048,9.03571429 C10.2619048,8.5039656 10.230159,8.05754149 10.1666667,7.69642857 C10.1031743,7.33531565 10.0158736,7.0436519 9.9047619,6.82142857 C9.79365024,6.59920524 9.66071506,6.44246077 9.50595238,6.35119048 C9.3511897,6.25992018 9.1825406,6.21428571 9,6.21428571 C8.8174594,6.21428571 8.6488103,6.25992018 8.49404762,6.35119048 C8.33928494,6.44246077 8.20634976,6.59920524 8.0952381,6.82142857 C7.98412643,7.0436519 7.89682571,7.33531565 7.83333333,7.69642857 C7.76984095,8.05754149 7.73809524,8.5039656 7.73809524,9.03571429 C7.73809524,9.57539952 7.76984095,10.027776 7.83333333,10.3928571 C7.89682571,10.7579383 7.98412643,11.0555544 8.0952381,11.2857143 C8.20634976,11.5158742 8.33928494,11.6805551 8.49404762,11.7797619 C8.6488103,11.8789687 8.8174594,11.9285714 9,11.9285714 Z" id="0" fill="#FFFFFF"></path>
            </g>
        </g>
    </g>
</svg>